<svg width="24" height="24" viewBox="0 0 24 24" fill="none" xmlns="http://www.w3.org/2000/svg">
<path d="M12 7.25C12.4142 7.25 12.75 7.58579 12.75 8V14C12.75 14.4142 12.4142 14.75 12 14.75C11.5858 14.75 11.25 14.4142 11.25 14V8C11.25 7.58579 11.5858 7.25 12 7.25Z" fill="#F3F3F7"/>
<path d="M12.75 17C12.75 16.5858 12.4142 16.25 12 16.25C11.5858 16.25 11.25 16.5858 11.25 17V17.01C11.25 17.4242 11.5858 17.76 12 17.76C12.4142 17.76 12.75 17.4242 12.75 17.01V17Z" fill="#F3F3F7"/>
<path fill-rule="evenodd" clip-rule="evenodd" d="M16.0485 4.75338C14.3805 1.41554 9.6194 1.41554 7.95139 4.75338L2.73261 15.1966C1.22826 18.2069 3.41577 21.75 6.78116 21.75H17.2187C20.5841 21.75 22.7716 18.2069 21.2673 15.1966L16.0485 4.75338ZM9.29317 5.42391C10.4085 3.19203 13.5914 3.19203 14.7067 5.42391L19.9255 15.8671C20.9321 17.8813 19.4679 20.25 17.2187 20.25H6.78116C4.53203 20.25 3.06784 17.8813 4.07439 15.8671L9.29317 5.42391Z" fill="#F3F3F7"/>
</svg>
