<svg width="24" height="24" viewBox="0 0 24 24" fill="none" xmlns="http://www.w3.org/2000/svg">
<path fill-rule="evenodd" clip-rule="evenodd" d="M3.75 12C3.75 7.44365 7.44365 3.75 12 3.75C16.5563 3.75 20.25 7.44365 20.25 12C20.25 13.0817 19.8985 13.8039 19.4811 14.2039C19.0682 14.5995 18.5605 14.719 18.0834 14.581C17.4033 14.3843 16.4864 13.5077 16.2194 11.4577C16.2157 11.4251 16.2116 11.3926 16.2073 11.3602C16.1176 10.6004 16.1159 9.68419 16.2449 8.58763C16.2933 8.17625 15.999 7.80353 15.5876 7.75514C15.1763 7.70674 14.8035 8.00099 14.7551 8.41237C14.7506 8.45115 14.7462 8.48979 14.7419 8.5283C13.8931 7.73534 12.7532 7.25 11.5 7.25C8.87665 7.25 6.75 9.37665 6.75 12C6.75 14.6234 8.87665 16.75 11.5 16.75C13.2625 16.75 14.8009 15.79 15.6206 14.3644C16.1445 15.2252 16.8507 15.7859 17.6666 16.0219C18.6895 16.3178 19.7443 16.0292 20.5189 15.2869C21.289 14.549 21.75 13.4036 21.75 12C21.75 6.61522 17.3848 2.25 12 2.25C6.61522 2.25 2.25 6.61522 2.25 12C2.25 17.3848 6.61522 21.75 12 21.75C12.4142 21.75 12.75 21.4142 12.75 21C12.75 20.5858 12.4142 20.25 12 20.25C7.44365 20.25 3.75 16.5563 3.75 12ZM8.25 12C8.25 10.2051 9.70507 8.75 11.5 8.75C13.2949 8.75 14.75 10.2051 14.75 12C14.75 13.7949 13.2949 15.25 11.5 15.25C9.70507 15.25 8.25 13.7949 8.25 12Z" fill="#F3F3F7"/>
</svg>
