<svg width="24" height="24" viewBox="0 0 24 24" fill="none" xmlns="http://www.w3.org/2000/svg">
<path d="M10.2492 9.75C10.2492 8.92187 10.9209 8.25 11.7501 8.25C12.5794 8.25 13.2511 8.92187 13.2511 9.75V10.0538C13.2511 10.5891 13.0132 11.0967 12.6017 11.4395L12.1347 11.8285C11.87 12.049 11.5694 12.3035 11.3525 12.6297C11.1124 12.9908 11.0001 13.3938 11.0001 13.8777C11.0001 14.2919 11.3359 14.6277 11.7501 14.6277C12.1643 14.6277 12.5001 14.2919 12.5001 13.8777C12.5001 13.6486 12.5462 13.5434 12.6015 13.4603C12.6799 13.3424 12.8116 13.2169 13.0947 12.9811L13.5618 12.592C14.3153 11.9644 14.7511 11.0345 14.7511 10.0538V9.75C14.7511 8.09285 13.4072 6.75 11.7501 6.75C10.093 6.75 8.74918 8.09285 8.74918 9.75C8.74918 10.1642 9.08496 10.5 9.49918 10.5C9.91339 10.5 10.2492 10.1642 10.2492 9.75Z" fill="#F3F3F7"/>
<path d="M11.7501 15.75C11.3359 15.75 11.0001 16.0858 11.0001 16.5C11.0001 16.9142 11.3359 17.25 11.7501 17.25H11.7601C12.1743 17.25 12.5101 16.9142 12.5101 16.5C12.5101 16.0858 12.1743 15.75 11.7601 15.75H11.7501Z" fill="#F3F3F7"/>
<path fill-rule="evenodd" clip-rule="evenodd" d="M12 1.25C6.06294 1.25 1.25 6.06294 1.25 12C1.25 17.9371 6.06294 22.75 12 22.75C17.9371 22.75 22.75 17.9371 22.75 12C22.75 6.06294 17.9371 1.25 12 1.25ZM2.75 12C2.75 6.89137 6.89137 2.75 12 2.75C17.1086 2.75 21.25 6.89137 21.25 12C21.25 17.1086 17.1086 21.25 12 21.25C6.89137 21.25 2.75 17.1086 2.75 12Z" fill="#F3F3F7"/>
</svg>
