<svg width="24" height="24" viewBox="0 0 24 24" fill="none" xmlns="http://www.w3.org/2000/svg">
<path d="M15.3492 2.59458C16.9055 2.28755 18.697 2.61028 20.463 4.18324C21.8129 5.33863 22.9395 7.64044 22.7232 10.2973C22.5926 12.1132 21.6441 13.9621 20.1375 15.7387C18.6234 17.5239 16.4991 19.2919 13.9088 20.9531C12.7487 21.6972 11.2616 21.6971 10.1015 20.9533C7.51051 19.2921 5.38376 17.5243 3.8673 15.7392C2.35836 13.9629 1.40722 12.1138 1.27654 10.2973C1.06008 7.63775 2.1993 5.33694 3.5472 4.18326C5.31322 2.61029 7.10474 2.28756 8.66101 2.59459C10.0998 2.87844 11.2692 3.68494 12.0051 4.36558C12.741 3.68494 13.9104 2.87843 15.3492 2.59458Z" fill="#F3F3F7"/>
</svg>
