<svg width="24" height="24" viewBox="0 0 24 24" fill="none" xmlns="http://www.w3.org/2000/svg">
<path d="M21 6C21 5.44772 20.5523 5 20 5H14C13.4477 5 13 5.44772 13 6C13 6.55228 13.4477 7 14 7H20C20.5523 7 21 6.55228 21 6Z" fill="#F3F3F7"/>
<path d="M21 12C21 11.4477 20.5523 11 20 11H4C3.44772 11 3 11.4477 3 12C3 12.5523 3.44772 13 4 13H20C20.5523 13 21 12.5523 21 12Z" fill="#F3F3F7"/>
<path d="M20 17C20.5523 17 21 17.4477 21 18C21 18.5523 20.5523 19 20 19H10C9.44771 19 9 18.5523 9 18C9 17.4477 9.44771 17 10 17H20Z" fill="#F3F3F7"/>
</svg>
