<svg width="24" height="24" viewBox="0 0 24 24" fill="none" xmlns="http://www.w3.org/2000/svg">
<path d="M20.75 6C20.75 5.58579 20.4142 5.25 20 5.25H14C13.5858 5.25 13.25 5.58579 13.25 6C13.25 6.41421 13.5858 6.75 14 6.75H20C20.4142 6.75 20.75 6.41421 20.75 6Z" fill="#F3F3F7"/>
<path d="M20.75 12C20.75 11.5858 20.4142 11.25 20 11.25H4C3.58579 11.25 3.25 11.5858 3.25 12C3.25 12.4142 3.58579 12.75 4 12.75H20C20.4142 12.75 20.75 12.4142 20.75 12Z" fill="#F3F3F7"/>
<path d="M20 17.25C20.4142 17.25 20.75 17.5858 20.75 18C20.75 18.4142 20.4142 18.75 20 18.75H10C9.58579 18.75 9.25 18.4142 9.25 18C9.25 17.5858 9.58579 17.25 10 17.25H20Z" fill="#F3F3F7"/>
</svg>
