<svg width="24" height="24" viewBox="0 0 24 24" fill="none" xmlns="http://www.w3.org/2000/svg">
<path d="M12.5669 7.25902C12.2958 6.94591 11.8221 6.9119 11.509 7.18306C11.1959 7.45423 11.1619 7.92788 11.4331 8.241L11.4417 8.251C11.7129 8.56412 12.1865 8.59813 12.4996 8.32696C12.8128 8.05579 12.8468 7.58214 12.5756 7.26902L12.5669 7.25902Z" fill="#F3F3F7"/>
<path d="M11 9.50001C10.5858 9.50001 10.25 9.8358 10.25 10.25C10.25 10.6642 10.5858 11 11 11H11.2576L11.25 16.2489C11.2494 16.6631 11.5847 16.9994 11.9989 17C12.4131 17.0006 12.7494 16.6653 12.75 16.2511L12.7587 10.2511C12.759 10.052 12.6801 9.86095 12.5394 9.72007C12.3987 9.57918 12.2078 9.50001 12.0087 9.50001H11Z" fill="#F3F3F7"/>
<path fill-rule="evenodd" clip-rule="evenodd" d="M12 1.25C6.06294 1.25 1.25 6.06294 1.25 12C1.25 17.9371 6.06294 22.75 12 22.75C17.9371 22.75 22.75 17.9371 22.75 12C22.75 6.06294 17.9371 1.25 12 1.25ZM2.75 12C2.75 6.89137 6.89137 2.75 12 2.75C17.1086 2.75 21.25 6.89137 21.25 12C21.25 17.1086 17.1086 21.25 12 21.25C6.89137 21.25 2.75 17.1086 2.75 12Z" fill="#F3F3F7"/>
</svg>
