<svg width="13" height="13" viewBox="0 0 13 13" fill="none" xmlns="http://www.w3.org/2000/svg">
    <path d="M10.3054 11.312L7.15537 8.16195C6.90537 8.36195 6.61787 8.52028 6.29287 8.63695C5.96787 8.75362 5.62204 8.81195 5.25537 8.81195C4.34704 8.81195 3.57837 8.49728 2.94937 7.86795C2.32037 7.23862 2.0057 6.46995 2.00537 5.56195C2.00504 4.65395 2.3197 3.88528 2.94937 3.25595C3.57904 2.62662 4.3477 2.31195 5.25537 2.31195C6.16304 2.31195 6.93187 2.62662 7.56187 3.25595C8.19187 3.88528 8.50637 4.65395 8.50537 5.56195C8.50537 5.92862 8.44704 6.27445 8.33037 6.59945C8.2137 6.92445 8.05537 7.21195 7.85537 7.46195L11.0054 10.612L10.3054 11.312ZM5.25537 7.81195C5.88037 7.81195 6.4117 7.59328 6.84937 7.15595C7.28704 6.71862 7.5057 6.18728 7.50537 5.56195C7.50504 4.93662 7.28637 4.40545 6.84937 3.96845C6.41237 3.53145 5.88104 3.31262 5.25537 3.31195C4.6297 3.31128 4.09854 3.53012 3.66187 3.96845C3.2252 4.40678 3.00637 4.93795 3.00537 5.56195C3.00437 6.18595 3.2232 6.71728 3.66187 7.15595C4.10054 7.59462 4.6317 7.81328 5.25537 7.81195Z"
          fill="black"/>
</svg>
